<?xml version="1.0" encoding="iso-8859-1"?>
<!-- Generator: Adobe Illustrator 19.0.0, SVG Export Plug-In . SVG Version: 6.00 Build 0)  -->
<svg version="1.1" id="Layer_1" xmlns="http://www.w3.org/2000/svg" xmlns:xlink="http://www.w3.org/1999/xlink" x="0px" y="0px"
	 viewBox="0 0 286.187 286.187" style="enable-background:new 0 0 286.187 286.187;" xml:space="preserve">
<g>
	<g>
		<g>
			<g id="XMLID_23_">
				<g>
					<g>
						<g>
							<path style="fill:#2D213F;" d="M240.029,96.935c0,29.27-13.083,55.531-33.674,73.335v107.768c0,3.231-1.932,6.177-4.91,7.476
								c-1.045,0.443-2.154,0.665-3.263,0.665c-2.027,0-4.023-0.76-5.544-2.186l-47.707-44.349l-51.603,44.571
								c-2.408,2.059-5.829,2.566-8.743,1.235c-2.883-1.33-4.752-4.245-4.752-7.413V170.269
								c-20.591-17.803-33.674-44.064-33.674-73.335C46.16,43.462,89.654,0,143.094,0S240.029,43.462,240.029,96.935z
								 M223.683,96.935c0-44.444-36.145-80.62-80.589-80.62s-80.62,36.176-80.62,80.62s36.176,80.589,80.62,80.589
								S223.683,141.379,223.683,96.935z M190.01,259.284v-77.579c-13.907,7.729-29.904,12.133-46.915,12.133
								s-33.04-4.403-46.947-12.133v78.498l43.652-37.697c3.136-2.724,7.824-2.661,10.897,0.19L190.01,259.284z"/>
						</g>
					</g>
					<g>
						<g>
							<path style="fill:#505967;" d="M143.094,16.314c44.444,0,80.589,36.176,80.589,80.62s-36.145,80.589-80.589,80.589
								s-80.62-36.145-80.62-80.589S98.65,16.314,143.094,16.314z M218.583,96.935c0-41.657-33.864-75.52-75.489-75.52
								s-75.52,33.864-75.52,75.52c0,41.625,33.895,75.489,75.52,75.489S218.583,138.559,218.583,96.935z"/>
						</g>
					</g>
					<g>
						<g>
							<path style="fill:#2D213F;" d="M143.094,21.414c41.625,0,75.489,33.864,75.489,75.52c0,41.625-33.864,75.489-75.489,75.489
								s-75.52-33.864-75.52-75.489C67.574,55.278,101.47,21.414,143.094,21.414z M202.269,96.935
								c0-32.628-26.546-59.174-59.174-59.174S83.92,64.306,83.92,96.935s26.546,59.174,59.174,59.174
								S202.269,129.563,202.269,96.935z"/>
						</g>
					</g>
					<g>
						<g>
							<path style="fill:#505967;" d="M190.01,181.705v77.579l-39.312-36.588c-3.073-2.851-7.761-2.914-10.897-0.19l-43.652,37.697
								v-78.498c13.907,7.729,29.936,12.133,46.947,12.133S176.103,189.434,190.01,181.705z"/>
						</g>
					</g>
					<g>
						<g>
							<path style="fill:#EAEEEF;" d="M143.094,37.76c32.628,0,59.174,26.546,59.174,59.174s-26.546,59.174-59.174,59.174
								S83.92,129.562,83.92,96.934S110.466,37.76,143.094,37.76z M152.693,125.476V63.673l-26.419,2.186v10.802h12.259v48.816
								h14.16V125.476z"/>
						</g>
					</g>
					<g>
						<g>
							<polygon style="fill:#2D213F;" points="152.693,63.673 152.693,125.476 138.533,125.476 138.533,76.661 126.273,76.661 
								126.273,65.859 							"/>
						</g>
					</g>
				</g>
			</g>
		</g>
		<g>
			<path style="fill:#C5CBCF;" d="M143.094,37.76c-4.448,0-8.765,0.532-12.934,1.47c30.471,7.444,59.548,26.473,70.94,69.394
				c0.76-3.779,1.169-7.688,1.169-11.689C202.269,64.306,175.723,37.76,143.094,37.76z"/>
		</g>
	</g>
</g>
<g>
</g>
<g>
</g>
<g>
</g>
<g>
</g>
<g>
</g>
<g>
</g>
<g>
</g>
<g>
</g>
<g>
</g>
<g>
</g>
<g>
</g>
<g>
</g>
<g>
</g>
<g>
</g>
<g>
</g>
</svg>
